<svg xmlns="http://www.w3.org/2000/svg" viewBox="0 0 200 200" fill="none" role="img" aria-label="Integrations illustration">
  <rect x="20" y="70" width="40" height="40" rx="6" fill="#191A23" stroke="#F3F3F3" stroke-width="2.5"/>
  <rect x="28" y="78" width="24" height="3" rx="1" fill="#F3F3F3"/>
  <rect x="28" y="85" width="18" height="3" rx="1" fill="#F3F3F3"/>
  <rect x="28" y="92" width="22" height="3" rx="1" fill="#F3F3F3"/>
  <rect x="28" y="99" width="14" height="3" rx="1" fill="#B9FF66"/>
  <ellipse cx="160" cy="78" rx="20" ry="6" fill="#191A23" stroke="#F3F3F3" stroke-width="2.5"/>
  <path d="M 140 78 L 140 102 Q 140 108 160 108 Q 180 108 180 102 L 180 78" fill="#191A23" stroke="#F3F3F3" stroke-width="2.5"/>
  <ellipse cx="160" cy="90" rx="20" ry="6" fill="none" stroke="#F3F3F3" stroke-width="2.5"/>
  <path d="M 100 80 L 115 88 L 115 102 L 100 110 L 85 102 L 85 88 Z" fill="#B9FF66" stroke="#F3F3F3" stroke-width="2.5" stroke-linejoin="round"/>
  <text x="100" y="100" font-family="Inter, sans-serif" font-size="14" font-weight="700" fill="#191A23" text-anchor="middle">{ }</text>
  <path d="M 60 90 L 85 95" stroke="#F3F3F3" stroke-width="2" stroke-linecap="round"/>
  <circle cx="68" cy="91.5" r="2.5" fill="#B9FF66" stroke="#F3F3F3" stroke-width="1"/>
  <circle cx="77" cy="93.5" r="2.5" fill="#B9FF66" stroke="#F3F3F3" stroke-width="1"/>
  <path d="M 115 95 L 140 90" stroke="#F3F3F3" stroke-width="2" stroke-linecap="round"/>
  <circle cx="123" cy="93.5" r="2.5" fill="#B9FF66" stroke="#F3F3F3" stroke-width="1"/>
  <circle cx="132" cy="91.5" r="2.5" fill="#B9FF66" stroke="#F3F3F3" stroke-width="1"/>
  <rect x="80" y="40" width="40" height="16" rx="4" fill="#B9FF66"/>
  <text x="100" y="51" font-family="JetBrains Mono, monospace" font-size="8" font-weight="700" fill="#191A23" text-anchor="middle">SYNC</text>
  <path d="M 100 56 L 100 70" stroke="#F3F3F3" stroke-width="1.5" stroke-dasharray="2 2"/>
  <path d="M 40 160 L 42 164 L 46 166 L 42 168 L 40 172 L 38 168 L 34 166 L 38 164 Z" fill="#B9FF66" stroke="#F3F3F3" stroke-width="1"/>
</svg>
