<svg xmlns="http://www.w3.org/2000/svg" viewBox="0 0 200 200" fill="none" role="img" aria-label="Automations illustration">
  <rect x="20" y="30" width="50" height="35" rx="6" fill="#B9FF66" stroke="#F3F3F3" stroke-width="2.5"/>
  <circle cx="32" cy="47" r="3" fill="#191A23"/>
  <line x1="40" y1="44" x2="60" y2="44" stroke="#191A23" stroke-width="1.5"/>
  <line x1="40" y1="50" x2="55" y2="50" stroke="#191A23" stroke-width="1.5"/>
  <path d="M 75 47 L 95 47" stroke="#F3F3F3" stroke-width="2.5" stroke-linecap="round"/>
  <path d="M 90 42 L 95 47 L 90 52" stroke="#F3F3F3" stroke-width="2.5" stroke-linecap="round" stroke-linejoin="round" fill="none"/>
  <rect x="100" y="30" width="50" height="35" rx="6" fill="#F3F3F3" stroke="#F3F3F3" stroke-width="2.5"/>
  <circle cx="125" cy="47" r="6" fill="#B9FF66"/>
  <circle cx="125" cy="47" r="11" fill="none" stroke="#B9FF66" stroke-width="2" opacity="0.5"/>
  <path d="M 125 70 L 125 90" stroke="#F3F3F3" stroke-width="2.5" stroke-linecap="round"/>
  <path d="M 120 85 L 125 90 L 130 85" stroke="#F3F3F3" stroke-width="2.5" stroke-linecap="round" stroke-linejoin="round" fill="none"/>
  <rect x="100" y="95" width="50" height="35" rx="6" fill="#191A23" stroke="#F3F3F3" stroke-width="2.5"/>
  <rect x="108" y="105" width="34" height="3" rx="1" fill="#F3F3F3"/>
  <rect x="108" y="112" width="20" height="3" rx="1" fill="#F3F3F3"/>
  <rect x="108" y="119" width="28" height="3" rx="1" fill="#B9FF66"/>
  <path d="M 95 112 L 75 112" stroke="#F3F3F3" stroke-width="2.5" stroke-linecap="round" stroke-dasharray="3 3"/>
  <rect x="20" y="95" width="50" height="35" rx="6" fill="#B9FF66" stroke="#F3F3F3" stroke-width="2.5"/>
  <path d="M 35 112 L 42 119 L 55 105" stroke="#191A23" stroke-width="2.5" stroke-linecap="round" stroke-linejoin="round" fill="none"/>
  <path d="M 165 155 L 167 159 L 171 161 L 167 163 L 165 167 L 163 163 L 159 161 L 163 159 Z" fill="#B9FF66"/>
  <path d="M 35 170 L 37 174 L 41 176 L 37 178 L 35 182 L 33 178 L 29 176 L 33 174 Z" fill="#F3F3F3"/>
</svg>
