<svg width="119" height="41" viewBox="0 0 119 41" fill="none" xmlns="http://www.w3.org/2000/svg">
<g clip-path="url(#clip0_6301_532)">
<path d="M16.2692 28.1041C15.6648 29.4902 14.6817 30.5973 13.3218 31.4272C11.9619 32.2572 10.4339 32.673 8.73442 32.673C6.33376 32.673 4.33038 31.8853 2.72088 30.3099C1.11139 28.7346 0.306641 26.762 0.306641 24.3939C0.306641 22.0258 1.11139 20.0482 2.72088 18.4627C4.33038 16.8772 6.33376 16.0845 8.73442 16.0845C10.2845 16.0845 11.6835 16.4394 12.9313 17.1477C14.1792 17.8559 15.1266 18.8126 15.7751 20.0178L11.8889 22.2219C11.5918 21.6726 11.1639 21.2415 10.6071 20.9288C10.0502 20.6178 9.42541 20.4606 8.73612 20.4606C7.6003 20.4606 6.66313 20.8359 5.92459 21.5864C5.18606 22.3369 4.81764 23.2733 4.81764 24.3939C4.81764 25.5146 5.18606 26.4324 5.92459 27.1778C6.66313 27.9233 7.6003 28.2968 8.73612 28.2968C9.512 28.2968 10.2047 28.1193 10.8142 27.7661C11.4254 27.4111 11.8838 26.9175 12.1928 26.2837L16.2709 28.1075L16.2692 28.1041Z" fill="#04332A"/>
<path d="M69.9774 28.1045L70.2168 32.1645C69.6005 32.4603 68.8144 32.6091 67.8586 32.6091C65.9469 32.6091 64.4036 32.0361 63.2304 30.8884C62.0573 29.7407 61.4698 28.1518 61.4698 26.1217V20.7618H58.4902V16.4009H61.4698V12.2141H66.0742V16.4009H70.0097V20.7618H66.0742V25.8851C66.0742 26.6153 66.3136 27.2035 66.7907 27.6531C67.2695 28.1028 67.8518 28.3276 68.5428 28.3276C69.0742 28.3276 69.5513 28.2532 69.9774 28.1061V28.1045Z" fill="#04332A"/>
<path d="M94.227 9.49292C94.7787 8.94865 95.4375 8.67651 96.2015 8.67651C96.9655 8.67651 97.6242 8.94865 98.176 9.49292C98.7278 10.0372 99.0045 10.6846 99.0045 11.4351C99.0045 12.1856 98.7278 12.8515 98.176 13.4009C97.6242 13.9502 96.9655 14.2257 96.2015 14.2257C95.4375 14.2257 94.7787 13.9502 94.227 13.4009C93.6752 12.8515 93.3984 12.1957 93.3984 11.4351C93.3984 10.6744 93.6752 10.0372 94.227 9.49292ZM93.9095 16.3994H98.5138V32.3558H93.9095V16.3994Z" fill="#04332A"/>
<path d="M30.9185 16.399V17.4098C29.7725 16.6069 28.4398 16.0829 27 16.0829C24.5994 16.0829 22.596 16.8756 20.9865 18.4611C19.377 20.0466 18.5723 22.0243 18.5723 24.3923C18.5723 26.7604 19.377 28.733 20.9865 30.3084C22.596 31.8837 24.5994 32.6714 27 32.6714C28.4177 32.6714 29.7538 32.193 30.9185 31.4324V32.3536H35.5229V16.3973H30.9185V16.399ZM24.1885 27.1763C23.45 26.4308 23.0816 25.5029 23.0816 24.3923C23.0816 23.2818 23.45 22.337 24.1885 21.5848C24.9271 20.8343 25.8642 20.459 27 20.459C28.1359 20.459 29.073 20.8326 29.8116 21.578C30.5501 22.3234 30.9185 23.2514 30.9185 24.3619C30.9185 25.4724 30.5501 26.4173 29.8116 27.1695C29.073 27.92 28.1359 28.2952 27 28.2952C25.8642 28.2952 24.9271 27.9217 24.1885 27.1763Z" fill="#04332A"/>
<path d="M54.1516 18.4611C52.5421 16.8756 50.5388 16.0829 48.1381 16.0829C46.6984 16.0829 45.3656 16.6069 44.2196 17.4098V16.399H39.6152V37.6205H44.2196V31.4341C45.3843 32.193 46.7204 32.6731 48.1381 32.6731C50.5388 32.6731 52.5421 31.8854 54.1516 30.31C55.7611 28.7347 56.5659 26.7621 56.5659 24.394C56.5659 22.0259 55.7611 20.0483 54.1516 18.4628V18.4611ZM50.9496 27.1762C50.2111 27.9217 49.2739 28.2952 48.1381 28.2952C47.0023 28.2952 46.0651 27.92 45.3266 27.1695C44.588 26.419 44.2196 25.4826 44.2196 24.3619C44.2196 23.2413 44.588 22.3234 45.3266 21.578C46.0651 20.8326 47.0023 20.459 48.1381 20.459C49.2739 20.459 50.2111 20.8343 50.9496 21.5848C51.6881 22.3353 52.0566 23.2717 52.0566 24.3923C52.0566 25.513 51.6881 26.4308 50.9496 27.1762Z" fill="#04332A"/>
<path d="M85.1353 16.399V17.4115C83.9893 16.6086 82.6566 16.0829 81.2168 16.0829C78.8162 16.0829 76.8128 16.8756 75.2033 18.4611C73.5938 20.0466 72.7891 22.0243 72.7891 24.3923C72.7891 26.7604 73.5938 28.733 75.2033 30.3084C76.8128 31.8837 78.8162 32.6714 81.2168 32.6714C82.6345 32.6714 83.9706 32.193 85.1353 31.4324V32.3536H89.7397V16.3973H85.1353V16.399ZM84.0284 27.1678C83.2898 27.9183 82.3527 28.2935 81.2168 28.2935C80.081 28.2935 79.1439 27.92 78.4053 27.1746C77.6668 26.4291 77.2984 25.5012 77.2984 24.3907C77.2984 23.2801 77.6668 22.3353 78.4053 21.5831C79.1439 20.8326 80.081 20.4574 81.2168 20.4574C82.3527 20.4574 83.2898 20.8309 84.0284 21.5763C84.7669 22.3217 85.1353 23.2497 85.1353 24.3602C85.1353 25.4707 84.7669 26.4156 84.0284 27.1678Z" fill="#04332A"/>
<path d="M116.611 18.025C115.448 16.7303 113.857 16.0829 111.84 16.0829C110.937 16.0829 110.089 16.2807 109.298 16.6779C108.507 17.0751 107.894 17.6109 107.458 18.287V16.399H102.854V32.3553H107.458V23.7669C107.458 22.8762 107.753 22.1307 108.348 21.5324C108.94 20.934 109.692 20.6348 110.606 20.6348C111.519 20.6348 112.271 20.9357 112.864 21.5391C113.456 22.1426 113.753 22.8931 113.753 23.7923C113.753 23.8785 113.748 23.963 113.743 24.0458C113.748 24.0661 113.753 24.0864 113.753 24.1084V32.3553H118.358V23.3308C118.358 21.0895 117.777 19.3215 116.614 18.025H116.611Z" fill="#04332A"/>
</g>
<defs>
<clipPath id="clip0_6301_532">
<rect width="118.476" height="39.7624" fill="white" transform="translate(-0.0546875 0.699341)"/>
</clipPath>
</defs>
</svg>
