<svg xmlns="http://www.w3.org/2000/svg" viewBox="0 0 200 200" fill="none" role="img" aria-label="Custom Software illustration">
  <rect x="20" y="35" width="160" height="120" rx="8" fill="#FFFFFF" stroke="#191A23" stroke-width="2.5"/>
  <line x1="20" y1="55" x2="180" y2="55" stroke="#191A23" stroke-width="2"/>
  <circle cx="30" cy="45" r="2.5" fill="#191A23"/>
  <circle cx="40" cy="45" r="2.5" fill="#191A23"/>
  <circle cx="50" cy="45" r="2.5" fill="#191A23"/>
  <rect x="60" y="40" width="110" height="10" rx="2" fill="#F3F3F3" stroke="#191A23" stroke-width="1"/>
  <rect x="28" y="63" width="32" height="84" rx="3" fill="#F3F3F3"/>
  <rect x="32" y="68" width="24" height="3" rx="1" fill="#191A23"/>
  <rect x="32" y="75" width="20" height="3" rx="1" fill="#191A23" opacity="0.5"/>
  <rect x="32" y="82" width="24" height="3" rx="1" fill="#191A23"/>
  <rect x="32" y="89" width="22" height="3" rx="1" fill="#191A23" opacity="0.5"/>
  <rect x="65" y="63" width="50" height="30" rx="4" fill="#191A23" stroke="#191A23" stroke-width="1.5"/>
  <rect x="69" y="68" width="18" height="3" rx="1" fill="#B9FF66"/>
  <text x="69" y="86" font-family="Inter, sans-serif" font-size="11" font-weight="700" fill="#B9FF66">+47%</text>
  <rect x="120" y="63" width="50" height="30" rx="4" fill="#FFFFFF" stroke="#191A23" stroke-width="1.5"/>
  <rect x="124" y="68" width="22" height="3" rx="1" fill="#191A23" opacity="0.5"/>
  <text x="124" y="86" font-family="Inter, sans-serif" font-size="11" font-weight="700" fill="#191A23">1.2k</text>
  <rect x="65" y="98" width="105" height="48" rx="4" fill="#F3F3F3" stroke="#191A23" stroke-width="1.5"/>
  <polyline points="70,135 80,128 90,132 100,118 110,120 120,108 130,112 140,100 150,105 160,95 165,98" fill="none" stroke="#191A23" stroke-width="2" stroke-linecap="round" stroke-linejoin="round"/>
  <circle cx="165" cy="98" r="3" fill="#191A23"/>
  <path d="M 175 25 L 177 29 L 181 31 L 177 33 L 175 37 L 173 33 L 169 31 L 173 29 Z" fill="#FFFFFF" stroke="#191A23" stroke-width="1"/>
</svg>
